<?xml version="1.0" standalone="no"?>
<!DOCTYPE svg PUBLIC "-//W3C//DTD SVG 20010904//EN"
 "http://www.w3.org/TR/2001/REC-SVG-20010904/DTD/svg10.dtd">
<svg version="1.0" xmlns="http://www.w3.org/2000/svg"
 width="1066.000000pt" height="1066.000000pt" viewBox="0 0 1066.000000 1066.000000"
 preserveAspectRatio="xMidYMid meet">
<metadata>
Created by potrace 1.14, written by Peter Selinger 2001-2017
</metadata>
<g transform="translate(0.000000,1066.000000) scale(0.100000,-0.100000)"
fill="#000000" stroke="none">
<path d="M3143 9041 c-40 -10 -18 6 -643 -485 -853 -671 -1043 -820 -1078
-846 -18 -14 -336 -263 -707 -555 -455 -357 -677 -538 -681 -554 -4 -12 -7
-53 -7 -90 -2 -130 -81 -63 1637 -1399 54 -42 122 -95 150 -118 419 -336 1225
-956 1275 -981 86 -45 151 -45 209 -3 29 21 43 39 47 62 3 18 4 292 2 608 -4
616 -5 619 -55 664 -44 39 -135 19 -181 -40 -21 -26 -21 -35 -21 -489 0 -457
0 -463 -20 -468 -24 -6 1 -25 -420 308 -173 137 -484 382 -690 545 -1125 888
-1170 923 -1429 1125 -228 177 -227 173 -80 287 19 14 142 111 274 215 132
105 654 516 1160 914 506 399 972 766 1035 816 138 109 171 127 194 110 14
-11 16 -58 16 -453 l1 -442 24 -48 c33 -66 61 -96 120 -130 l50 -29 1540 -3
1540 -3 23 -22 23 -23 -1 -412 c0 -391 1 -414 19 -451 30 -58 75 -91 122 -91
51 0 73 12 87 47 8 19 13 190 16 523 4 467 3 497 -15 538 -28 64 -57 101 -105
132 l-43 27 -1554 -4 c-1496 -3 -1555 -3 -1577 15 l-22 18 -2 540 -1 540 -25
37 c-14 20 -39 44 -57 52 -40 19 -108 26 -150 16z"/>
<path d="M7351 6556 c-19 -7 -49 -29 -65 -50 l-31 -38 -3 -543 -3 -544 -25
-20 c-26 -20 -35 -21 -1587 -21 l-1561 0 -36 -28 c-19 -16 -50 -50 -67 -76
l-33 -48 0 -1028 0 -1028 33 -48 c17 -26 49 -61 69 -77 l37 -30 1580 2 c1531
1 1580 0 1602 -18 l24 -19 -4 -673 c-2 -529 0 -680 10 -702 34 -74 149 -90
257 -34 39 19 628 474 1518 1170 1181 924 1463 1149 1497 1195 l42 57 0 89
c-1 85 -2 89 -30 115 -105 92 -3042 2388 -3068 2398 -42 15 -113 15 -156 -1z"/>
</g>
</svg>
